# xmcd CD database file
#
# Track frame offsets:
#	150
#	26237
#	43310
#	64852
#	86764
#	120717
#	153912
#	180357
#	199959
#	228242
#	248214
#	268799
#
# Disc length: 4295 seconds
#
# Revision: 0
# Processed by: cddbd v1.5.1PL0 Copyright (c) Steve Scherf et al.
# Submitted via: CDex 1.51
#
DISCID=a710c50c
DTITLE=SUPER BUTTER DOG - ラ
DYEAR=2002
DGENRE=Funk
TTITLE0=メロディーの毛布にくるまって
TTITLE1=コミュニケーション・ブレイクダンス
TTITLE2=五十音
TTITLE3=5秒前の午後
TTITLE4=Yo!兄弟
TTITLE5=コード
TTITLE6=サヨナラCOLOR
TTITLE7=アサガオ記念日
TTITLE8=日々GO GO
TTITLE9=マッケンLO
TTITLE10=セ・ツ・ナ
TTITLE11=FUNKYウーロン茶
EXTD=YEAR: 2002
EXTT0=
EXTT1=
EXTT2=
EXTT3=
EXTT4=
EXTT5=
EXTT6=
EXTT7=
EXTT8=
EXTT9=
EXTT10=
EXTT11=
PLAYORDER=
